<svg width="28" height="28" viewBox="0 0 28 28" fill="none" xmlns="http://www.w3.org/2000/svg">
<g clip-path="url(#clip0_18_169)">
<path d="M5.1975 2.3625C5.3618 2.17041 5.56577 2.01619 5.79536 1.91046C6.02495 1.80473 6.27473 1.74998 6.5275 1.75H21.4725C21.7253 1.74998 21.975 1.80473 22.2046 1.91046C22.4342 2.01619 22.6382 2.17041 22.8025 2.3625L27.3682 7.6895C27.7759 8.16521 28 8.77102 28 9.3975V9.84375C28.0001 10.71 27.7296 11.5546 27.2262 12.2595C26.7228 12.9644 26.0118 13.4945 25.1924 13.7756C24.3731 14.0566 23.4864 14.0747 22.6563 13.8272C21.8262 13.5797 21.0942 13.0791 20.5625 12.3953C20.1742 12.8953 19.6767 13.3 19.108 13.5781C18.5392 13.8563 17.9144 14.0006 17.2812 14C16.6481 14.0007 16.0232 13.8565 15.4545 13.5783C14.8857 13.3001 14.3882 12.8954 14 12.3953C13.6118 12.8954 13.1143 13.3001 12.5455 13.5783C11.9768 13.8565 11.3519 14.0007 10.7188 14C10.0856 14.0007 9.46072 13.8565 8.89195 13.5783C8.32319 13.3001 7.82566 12.8954 7.4375 12.3953C6.90583 13.0791 6.17379 13.5797 5.34369 13.8272C4.51359 14.0747 3.6269 14.0566 2.80757 13.7756C1.98823 13.4945 1.27719 12.9644 0.773819 12.2595C0.270448 11.5546 -9.55475e-05 10.71 2.53129e-08 9.84375V9.3975C2.20632e-05 8.77102 0.224099 8.16521 0.63175 7.6895L5.19925 2.36075L5.1975 2.3625ZM8.3125 9.84375C8.3125 10.4819 8.56601 11.094 9.01727 11.5452C9.46853 11.9965 10.0806 12.25 10.7188 12.25C11.3569 12.25 11.969 11.9965 12.4202 11.5452C12.8715 11.094 13.125 10.4819 13.125 9.84375C13.125 9.61169 13.2172 9.38913 13.3813 9.22503C13.5454 9.06094 13.7679 8.96875 14 8.96875C14.2321 8.96875 14.4546 9.06094 14.6187 9.22503C14.7828 9.38913 14.875 9.61169 14.875 9.84375C14.875 10.4819 15.1285 11.094 15.5798 11.5452C16.031 11.9965 16.6431 12.25 17.2812 12.25C17.9194 12.25 18.5315 11.9965 18.9827 11.5452C19.434 11.094 19.6875 10.4819 19.6875 9.84375C19.6875 9.61169 19.7797 9.38913 19.9438 9.22503C20.1079 9.06094 20.3304 8.96875 20.5625 8.96875C20.7946 8.96875 21.0171 9.06094 21.1812 9.22503C21.3453 9.38913 21.4375 9.61169 21.4375 9.84375C21.4375 10.4819 21.691 11.094 22.1423 11.5452C22.5935 11.9965 23.2056 12.25 23.8438 12.25C24.4819 12.25 25.094 11.9965 25.5452 11.5452C25.9965 11.094 26.25 10.4819 26.25 9.84375V9.3975C26.25 9.18895 26.1755 8.98725 26.04 8.82875L21.4725 3.5H6.5275L1.96 8.82875C1.82446 8.98725 1.74998 9.18895 1.75 9.3975V9.84375C1.75 10.4819 2.00352 11.094 2.45477 11.5452C2.90603 11.9965 3.51807 12.25 4.15625 12.25C4.79443 12.25 5.40647 11.9965 5.85773 11.5452C6.30899 11.094 6.5625 10.4819 6.5625 9.84375C6.5625 9.61169 6.65469 9.38913 6.81878 9.22503C6.98288 9.06094 7.20544 8.96875 7.4375 8.96875C7.66956 8.96875 7.89212 9.06094 8.05622 9.22503C8.22031 9.38913 8.3125 9.61169 8.3125 9.84375ZM2.625 14.875C2.85706 14.875 3.07962 14.9672 3.24372 15.1313C3.40781 15.2954 3.5 15.5179 3.5 15.75V26.25H5.25V17.5C5.25 17.0359 5.43437 16.5908 5.76256 16.2626C6.09075 15.9344 6.53587 15.75 7 15.75H12.25C12.7141 15.75 13.1592 15.9344 13.4874 16.2626C13.8156 16.5908 14 17.0359 14 17.5V26.25H24.5V15.75C24.5 15.5179 24.5922 15.2954 24.7563 15.1313C24.9204 14.9672 25.1429 14.875 25.375 14.875C25.6071 14.875 25.8296 14.9672 25.9937 15.1313C26.1578 15.2954 26.25 15.5179 26.25 15.75V26.25H27.125C27.3571 26.25 27.5796 26.3422 27.7437 26.5063C27.9078 26.6704 28 26.8929 28 27.125C28 27.3571 27.9078 27.5796 27.7437 27.7437C27.5796 27.9078 27.3571 28 27.125 28H0.875C0.642936 28 0.420376 27.9078 0.256282 27.7437C0.0921873 27.5796 2.53129e-08 27.3571 2.53129e-08 27.125C2.53129e-08 26.8929 0.0921873 26.6704 0.256282 26.5063C0.420376 26.3422 0.642936 26.25 0.875 26.25H1.75V15.75C1.75 15.5179 1.84219 15.2954 2.00628 15.1313C2.17038 14.9672 2.39294 14.875 2.625 14.875ZM7 26.25H12.25V17.5H7V26.25ZM15.75 17.5C15.75 17.0359 15.9344 16.5908 16.2626 16.2626C16.5908 15.9344 17.0359 15.75 17.5 15.75H21C21.4641 15.75 21.9092 15.9344 22.2374 16.2626C22.5656 16.5908 22.75 17.0359 22.75 17.5V22.75C22.75 23.2141 22.5656 23.6592 22.2374 23.9874C21.9092 24.3156 21.4641 24.5 21 24.5H17.5C17.0359 24.5 16.5908 24.3156 16.2626 23.9874C15.9344 23.6592 15.75 23.2141 15.75 22.75V17.5ZM21 17.5H17.5V22.75H21V17.5Z" fill="#47B2E4"/>
</g>
<defs>
<clipPath id="clip0_18_169">
<rect width="28" height="28" fill="white"/>
</clipPath>
</defs>
</svg>
