<svg width="16" height="16" viewBox="0 0 16 16" fill="none" xmlns="http://www.w3.org/2000/svg">
<path d="M4.64598 4.64592C4.69242 4.59935 4.7476 4.56241 4.80834 4.5372C4.86909 4.512 4.93421 4.49902 4.99998 4.49902C5.06575 4.49902 5.13087 4.512 5.19161 4.5372C5.25236 4.56241 5.30753 4.59935 5.35398 4.64592L7.99998 7.29292L10.646 4.64592C10.6925 4.59943 10.7477 4.56255 10.8084 4.53739C10.8691 4.51223 10.9342 4.49929 11 4.49929C11.0657 4.49929 11.1308 4.51223 11.1916 4.53739C11.2523 4.56255 11.3075 4.59943 11.354 4.64592C11.4005 4.6924 11.4373 4.74759 11.4625 4.80833C11.4877 4.86907 11.5006 4.93417 11.5006 4.99992C11.5006 5.06566 11.4877 5.13076 11.4625 5.1915C11.4373 5.25224 11.4005 5.30743 11.354 5.35392L8.70698 7.99992L11.354 10.6459C11.4005 10.6924 11.4373 10.7476 11.4625 10.8083C11.4877 10.8691 11.5006 10.9342 11.5006 10.9999C11.5006 11.0657 11.4877 11.1308 11.4625 11.1915C11.4373 11.2522 11.4005 11.3074 11.354 11.3539C11.3075 11.4004 11.2523 11.4373 11.1916 11.4624C11.1308 11.4876 11.0657 11.5005 11 11.5005C10.9342 11.5005 10.8691 11.4876 10.8084 11.4624C10.7477 11.4373 10.6925 11.4004 10.646 11.3539L7.99998 8.70692L5.35398 11.3539C5.30749 11.4004 5.2523 11.4373 5.19156 11.4624C5.13082 11.4876 5.06572 11.5005 4.99998 11.5005C4.93423 11.5005 4.86913 11.4876 4.80839 11.4624C4.74766 11.4373 4.69247 11.4004 4.64598 11.3539C4.59949 11.3074 4.56261 11.2522 4.53745 11.1915C4.5123 11.1308 4.49935 11.0657 4.49935 10.9999C4.49935 10.9342 4.5123 10.8691 4.53745 10.8083C4.56261 10.7476 4.59949 10.6924 4.64598 10.6459L7.29298 7.99992L4.64598 5.35392C4.59941 5.30747 4.56247 5.2523 4.53727 5.19155C4.51206 5.13081 4.49908 5.06568 4.49908 4.99992C4.49908 4.93415 4.51206 4.86903 4.53727 4.80828C4.56247 4.74754 4.59941 4.69236 4.64598 4.64592Z" fill="#7D7C7C"/>
</svg>
