<svg width="26" height="26" viewBox="0 0 26 26" fill="none" xmlns="http://www.w3.org/2000/svg">
<g clip-path="url(#clip0_39_147)">
<path d="M16.9 12.9995C16.9 14.0339 16.4891 15.0259 15.7577 15.7572C15.0263 16.4886 14.0344 16.8995 13 16.8995C11.9657 16.8995 10.9737 16.4886 10.2423 15.7572C9.51091 15.0259 9.10002 14.0339 9.10002 12.9995C9.10002 12.7772 9.12342 12.5601 9.16372 12.3495H7.80002V17.5456C7.80002 17.907 8.09252 18.1995 8.45392 18.1995H17.5474C17.7206 18.1992 17.8866 18.1301 18.009 18.0075C18.1313 17.885 18.2 17.7188 18.2 17.5456V12.3495H16.8363C16.8766 12.5601 16.9 12.7772 16.9 12.9995ZM13 15.5995C13.3415 15.5994 13.6797 15.5321 13.9952 15.4013C14.3107 15.2705 14.5973 15.0789 14.8388 14.8374C15.0802 14.5958 15.2717 14.3091 15.4023 13.9935C15.5329 13.6779 15.6001 13.3398 15.6 12.9982C15.5999 12.6567 15.5326 12.3185 15.4018 12.0031C15.271 11.6876 15.0794 11.4009 14.8378 11.1595C14.5963 10.9181 14.3096 10.7266 13.994 10.5959C13.6784 10.4653 13.3402 10.3981 12.9987 10.3982C12.309 10.3984 11.6476 10.6726 11.16 11.1604C10.6724 11.6482 10.3985 12.3098 10.3987 12.9995C10.3989 13.6893 10.6731 14.3507 11.1609 14.8383C11.6487 15.3259 12.3103 15.5997 13 15.5995ZM16.12 10.2695H17.6787C17.7823 10.2695 17.8816 10.2285 17.955 10.1554C18.0283 10.0823 18.0697 9.98308 18.07 9.87953V8.32083C18.07 8.21705 18.0288 8.11752 17.9554 8.04414C17.882 7.97076 17.7825 7.92953 17.6787 7.92953H16.12C16.0162 7.92953 15.9167 7.97076 15.8433 8.04414C15.7699 8.11752 15.7287 8.21705 15.7287 8.32083V9.87953C15.73 10.094 15.9055 10.2695 16.12 10.2695ZM13 0.519531C9.69012 0.519531 6.51578 1.83438 4.17533 4.17484C1.83487 6.51529 0.52002 9.68963 0.52002 12.9995C0.52002 16.3094 1.83487 19.4838 4.17533 21.8242C6.51578 24.1647 9.69012 25.4795 13 25.4795C14.6389 25.4795 16.2618 25.1567 17.7759 24.5295C19.2901 23.9024 20.6658 22.9831 21.8247 21.8242C22.9836 20.6653 23.9029 19.2896 24.53 17.7754C25.1572 16.2613 25.48 14.6384 25.48 12.9995C25.48 11.3606 25.1572 9.73778 24.53 8.22364C23.9029 6.7095 22.9836 5.33371 21.8247 4.17484C20.6658 3.01596 19.2901 2.09669 17.7759 1.46951C16.2618 0.842336 14.6389 0.519531 13 0.519531ZM19.5 18.0552C19.5 18.8495 18.85 19.4995 18.0557 19.4995H7.94432C7.15002 19.4995 6.50002 18.8495 6.50002 18.0552V7.94383C6.50002 7.14953 7.15002 6.49953 7.94432 6.49953H18.0557C18.85 6.49953 19.5 7.14953 19.5 7.94383V18.0552Z" fill="#47B2E4"/>
</g>
<defs>
<clipPath id="clip0_39_147">
<rect width="26" height="26" fill="white"/>
</clipPath>
</defs>
</svg>
