<svg width="26" height="26" viewBox="0 0 26 26" fill="none" xmlns="http://www.w3.org/2000/svg">
<g clip-path="url(#clip0_36_1104)">
<path d="M13 0.519531C6.10742 0.519531 0.52002 6.10693 0.52002 12.9995C0.52002 19.8921 6.10742 25.4795 13 25.4795C19.8926 25.4795 25.48 19.8921 25.48 12.9995C25.48 6.10693 19.8926 0.519531 13 0.519531ZM9.94502 18.1722H7.41782V10.0394H9.94502V18.1722ZM8.66582 9.04103C7.86762 9.04103 7.35152 8.47553 7.35152 7.77613C7.35152 7.06243 7.88322 6.51383 8.69832 6.51383C9.51342 6.51383 10.0126 7.06243 10.0282 7.77613C10.0282 8.47553 9.51342 9.04103 8.66582 9.04103ZM19.175 18.1722H16.6478V13.6651C16.6478 12.616 16.2812 11.9036 15.3673 11.9036C14.6692 11.9036 14.2545 12.3859 14.0712 12.85C14.0036 13.0151 13.9867 13.2491 13.9867 13.4818V18.1709H11.4582V12.6329C11.4582 11.6176 11.4257 10.7687 11.3919 10.0381H13.5876L13.7033 11.1678H13.754C14.0868 10.6374 14.9019 9.85483 16.2656 9.85483C17.9283 9.85483 19.175 10.9689 19.175 13.3635V18.1722Z" fill="#47B2E4"/>
</g>
<defs>
<clipPath id="clip0_36_1104">
<rect width="26" height="26" fill="white"/>
</clipPath>
</defs>
</svg>
