<svg width="26" height="26" viewBox="0 0 26 26" fill="none" xmlns="http://www.w3.org/2000/svg">
<g clip-path="url(#clip0_36_1102)">
<path d="M15.8132 12.8071C15.4734 12.5878 15.1057 12.4151 14.7199 12.2936C14.2557 12.1428 13.784 12.0156 13.3068 11.9127C13.011 11.8446 12.7167 11.7701 12.4241 11.6891C12.2458 11.6389 12.0732 11.5701 11.9093 11.4837C11.7628 11.4124 11.633 11.311 11.5284 11.186C11.4427 11.0769 11.3977 10.9413 11.401 10.8025C11.401 10.5581 11.531 10.3527 11.7975 10.1733C12.0731 9.98743 12.4462 9.89383 12.9038 9.89383C13.3978 9.89383 13.7566 9.97703 13.9711 10.1447C14.1921 10.3176 14.3845 10.5633 14.5431 10.8753C14.6809 11.1197 14.8044 11.2887 14.9253 11.3953C15.054 11.5123 15.2386 11.5734 15.4752 11.5734C15.7365 11.5734 15.9562 11.4798 16.1317 11.2913C16.299 11.1224 16.3933 10.8946 16.3943 10.6569C16.3943 10.4125 16.3254 10.159 16.1941 9.90813C16.0384 9.62889 15.8274 9.38429 15.574 9.18923C15.2589 8.94553 14.9015 8.76218 14.5197 8.64843C14.0361 8.50447 13.5331 8.43607 13.0286 8.44563C12.3136 8.44563 11.6831 8.54703 11.1527 8.74983C10.6158 8.95523 10.1985 9.25423 9.91252 9.63773C9.62501 10.021 9.47234 10.4886 9.47832 10.9676C9.47832 11.4876 9.61742 11.9296 9.89172 12.2832C10.1608 12.6316 10.5313 12.9098 10.9889 13.1113C11.4387 13.3063 12.0003 13.4792 12.6646 13.6261C13.1508 13.7301 13.546 13.8315 13.8359 13.9251C14.1141 14.0135 14.3442 14.1435 14.5184 14.3112C14.6011 14.3923 14.6658 14.4899 14.7081 14.5976C14.7504 14.7054 14.7695 14.8209 14.7641 14.9365C14.7641 15.2641 14.6094 15.5306 14.2922 15.7568C13.9659 15.9856 13.533 16.1 13.0052 16.1C12.6204 16.1 12.3097 16.0441 12.077 15.9297C11.8668 15.8339 11.683 15.6885 11.5414 15.5059C11.3939 15.2971 11.2709 15.072 11.1748 14.8351C11.0939 14.6211 10.9654 14.4281 10.7991 14.2709C10.6437 14.136 10.4432 14.0645 10.2375 14.0707C10.1149 14.0669 9.99279 14.0873 9.87812 14.1308C9.76345 14.1743 9.6585 14.24 9.56932 14.3242C9.48422 14.4039 9.4166 14.5004 9.37073 14.6076C9.32485 14.7148 9.30173 14.8303 9.30282 14.9469C9.30282 15.3304 9.44062 15.7321 9.71232 16.1325C9.98142 16.5342 10.335 16.8566 10.7653 17.0945C11.3659 17.4221 12.1355 17.5872 13.0533 17.5872C13.8177 17.5872 14.4885 17.465 15.0501 17.2271C15.6156 16.9853 16.0524 16.6434 16.3475 16.2144C16.6438 15.7828 16.8 15.2703 16.7947 14.7467C16.7947 14.2943 16.7076 13.9043 16.5347 13.5884C16.3607 13.2736 16.1132 13.0056 15.8132 12.8071ZM13 0.519531C6.10742 0.519531 0.52002 6.10693 0.52002 12.9995C0.52002 19.8921 6.10742 25.4795 13 25.4795C19.8926 25.4795 25.48 19.8921 25.48 12.9995C25.48 6.10693 19.8926 0.519531 13 0.519531ZM15.9913 19.987C15.3582 19.987 14.7615 19.8245 14.2389 19.5346C13.8534 19.6096 13.4616 19.647 13.0689 19.6464C9.54202 19.6464 6.68072 16.7006 6.68072 13.0723C6.68072 12.6173 6.72622 12.1753 6.81072 11.7489C6.47524 11.1628 6.29951 10.4989 6.30112 9.82363C6.30112 7.71893 7.95992 6.00943 10.0074 6.00943C10.7315 6.00943 11.4062 6.22523 11.9782 6.59573C12.3318 6.53203 12.6984 6.49953 13.0689 6.49953C16.5984 6.49953 19.4584 9.44273 19.4584 13.0736C19.4584 13.5559 19.4077 14.0278 19.3115 14.4828C19.5572 14.9937 19.6963 15.567 19.6963 16.1767C19.695 18.2801 18.0375 19.987 15.9913 19.987Z" fill="#47B2E4"/>
</g>
<defs>
<clipPath id="clip0_36_1102">
<rect width="26" height="26" fill="white"/>
</clipPath>
</defs>
</svg>
