<svg width="26" height="26" viewBox="0 0 26 26" fill="none" xmlns="http://www.w3.org/2000/svg">
<g clip-path="url(#clip0_36_291)">
<path d="M13 0.52002C6.1074 0.52002 0.520004 6.10742 0.520004 13C0.520004 19.8926 6.1074 25.48 13 25.48C19.8926 25.48 25.48 19.8926 25.48 13C25.48 6.10742 19.8926 0.52002 13 0.52002ZM9.945 18.1727H7.4178V10.0399H9.945V18.1727ZM8.6658 9.04152C7.8676 9.04152 7.3515 8.47602 7.3515 7.77662C7.3515 7.06292 7.8832 6.51432 8.6983 6.51432C9.5134 6.51432 10.0126 7.06292 10.0282 7.77662C10.0282 8.47602 9.5134 9.04152 8.6658 9.04152ZM19.175 18.1727H16.6478V13.6656C16.6478 12.6165 16.2812 11.9041 15.3673 11.9041C14.6692 11.9041 14.2545 12.3864 14.0712 12.8505C14.0036 13.0156 13.9867 13.2496 13.9867 13.4823V18.1714H11.4582V12.6334C11.4582 11.6181 11.4257 10.7692 11.3919 10.0386H13.5876L13.7033 11.1683H13.754C14.0868 10.6379 14.9019 9.85532 16.2656 9.85532C17.9283 9.85532 19.175 10.9694 19.175 13.364V18.1727Z" fill="#47B2E4"/>
</g>
<defs>
<clipPath id="clip0_36_291">
<rect width="26" height="26" fill="white"/>
</clipPath>
</defs>
</svg>
