<svg width="26" height="26" viewBox="0 0 26 26" fill="none" xmlns="http://www.w3.org/2000/svg">
<g clip-path="url(#clip0_39_151)">
<path d="M13 0.519531C6.10742 0.519531 0.52002 6.10693 0.52002 12.9995C0.52002 19.8921 6.10742 25.4795 13 25.4795C19.8926 25.4795 25.48 19.8921 25.48 12.9995C25.48 6.10693 19.8926 0.519531 13 0.519531ZM18.0765 10.7427C18.0817 10.8493 18.083 10.9559 18.083 11.0599C18.083 14.3099 15.6117 18.0552 11.0903 18.0552C9.7543 18.0575 8.44607 17.6737 7.32292 16.9502C7.51402 16.9736 7.71032 16.9827 7.90922 16.9827C9.06102 16.9827 10.1205 16.5914 10.9616 15.931C10.449 15.921 9.95239 15.7512 9.54086 15.4455C9.12934 15.1398 8.82344 14.7133 8.66582 14.2254C9.03392 14.2954 9.41312 14.2808 9.77472 14.1825C9.21838 14.07 8.71808 13.7686 8.35864 13.3293C7.9992 12.89 7.80276 12.3399 7.80262 11.7723V11.7424C8.13412 11.9257 8.51372 12.0375 8.91672 12.0505C8.39516 11.7033 8.02594 11.17 7.88458 10.5596C7.74321 9.9492 7.84038 9.30786 8.15622 8.76673C8.77366 9.52593 9.54366 10.147 10.4164 10.5897C11.2891 11.0325 12.245 11.287 13.2223 11.3368C13.0981 10.8094 13.1515 10.2558 13.3744 9.76189C13.5973 9.26801 13.9771 8.86162 14.4548 8.60587C14.9325 8.35013 15.4813 8.25937 16.0159 8.3477C16.5505 8.43604 17.0409 8.69851 17.4109 9.09433C17.961 8.98549 18.4886 8.7837 18.9709 8.49763C18.7876 9.0672 18.4037 9.55086 17.8906 9.85873C18.3779 9.80004 18.8537 9.66903 19.3024 9.47003C18.9728 9.96389 18.5577 10.3949 18.0765 10.7427Z" fill="#47B2E4"/>
</g>
<defs>
<clipPath id="clip0_39_151">
<rect width="26" height="26" fill="white"/>
</clipPath>
</defs>
</svg>
