<svg width="26" height="26" viewBox="0 0 26 26" fill="none" xmlns="http://www.w3.org/2000/svg">
<g clip-path="url(#clip0_36_293)">
<path d="M15.8132 12.8076C15.4734 12.5883 15.1057 12.4156 14.7199 12.2941C14.2556 12.1433 13.784 12.0161 13.3068 11.9132C13.011 11.8451 12.7167 11.7705 12.4241 11.6896C12.2458 11.6394 12.0732 11.5706 11.9093 11.4842C11.7628 11.4129 11.633 11.3115 11.5284 11.1865C11.4427 11.0773 11.3977 10.9418 11.401 10.803C11.401 10.5586 11.531 10.3532 11.7975 10.1738C12.0731 9.98792 12.4462 9.89432 12.9038 9.89432C13.3978 9.89432 13.7566 9.97752 13.9711 10.1452C14.1921 10.3181 14.3845 10.5638 14.5431 10.8758C14.6809 11.1202 14.8044 11.2892 14.9253 11.3958C15.054 11.5128 15.2386 11.5739 15.4752 11.5739C15.7365 11.5739 15.9562 11.4803 16.1317 11.2918C16.299 11.1229 16.3932 10.8951 16.3943 10.6574C16.3943 10.413 16.3254 10.1595 16.1941 9.90862C16.0383 9.62938 15.8274 9.38478 15.574 9.18972C15.2589 8.94602 14.9015 8.76267 14.5197 8.64892C14.0361 8.50496 13.5331 8.43655 13.0286 8.44612C12.3136 8.44612 11.6831 8.54752 11.1527 8.75032C10.6158 8.95572 10.1985 9.25472 9.9125 9.63822C9.62499 10.0215 9.47233 10.4891 9.4783 10.9681C9.4783 11.4881 9.6174 11.9301 9.8917 12.2837C10.1608 12.6321 10.5313 12.9103 10.9889 13.1118C11.4387 13.3068 12.0003 13.4797 12.6646 13.6266C13.1508 13.7306 13.546 13.832 13.8359 13.9256C14.1141 14.014 14.3442 14.144 14.5184 14.3117C14.6011 14.3927 14.6657 14.4903 14.7081 14.5981C14.7504 14.7059 14.7695 14.8214 14.7641 14.937C14.7641 15.2646 14.6094 15.5311 14.2922 15.7573C13.9659 15.9861 13.533 16.1005 13.0052 16.1005C12.6204 16.1005 12.3097 16.0446 12.077 15.9302C11.8668 15.8344 11.683 15.689 11.5414 15.5064C11.3939 15.2976 11.2709 15.0725 11.1748 14.8356C11.0939 14.6215 10.9654 14.4286 10.7991 14.2714C10.6437 14.1365 10.4432 14.065 10.2375 14.0712C10.1149 14.0674 9.99278 14.0878 9.8781 14.1313C9.76343 14.1748 9.65849 14.2405 9.5693 14.3247C9.48421 14.4044 9.41658 14.5009 9.37071 14.6081C9.32484 14.7153 9.30171 14.8308 9.3028 14.9474C9.3028 15.3309 9.4406 15.7326 9.7123 16.133C9.9814 16.5347 10.335 16.8571 10.7653 17.095C11.3659 17.4226 12.1355 17.5877 13.0533 17.5877C13.8177 17.5877 14.4885 17.4655 15.0501 17.2276C15.6156 16.9858 16.0524 16.6439 16.3475 16.2149C16.6438 15.7833 16.8 15.2708 16.7947 14.7472C16.7947 14.2948 16.7076 13.9048 16.5347 13.5889C16.3607 13.2741 16.1132 13.0061 15.8132 12.8076ZM13 0.52002C6.1074 0.52002 0.520004 6.10742 0.520004 13C0.520004 19.8926 6.1074 25.48 13 25.48C19.8926 25.48 25.48 19.8926 25.48 13C25.48 6.10742 19.8926 0.52002 13 0.52002ZM15.9913 19.9875C15.3582 19.9875 14.7615 19.825 14.2389 19.5351C13.8534 19.6101 13.4616 19.6475 13.0689 19.6469C9.542 19.6469 6.6807 16.7011 6.6807 13.0728C6.6807 12.6178 6.7262 12.1758 6.8107 11.7494C6.47522 11.1633 6.2995 10.4994 6.3011 9.82412C6.3011 7.71942 7.9599 6.00992 10.0074 6.00992C10.7315 6.00992 11.4062 6.22572 11.9782 6.59622C12.3318 6.53252 12.6984 6.50002 13.0689 6.50002C16.5984 6.50002 19.4584 9.44322 19.4584 13.0741C19.4584 13.5564 19.4077 14.0283 19.3115 14.4833C19.5572 14.9942 19.6963 15.5675 19.6963 16.1772C19.695 18.2806 18.0375 19.9875 15.9913 19.9875Z" fill="#47B2E4"/>
</g>
<defs>
<clipPath id="clip0_36_293">
<rect width="26" height="26" fill="white"/>
</clipPath>
</defs>
</svg>
