<svg width="42" height="42" viewBox="0 0 42 42" fill="none" xmlns="http://www.w3.org/2000/svg">
<circle cx="21" cy="21" r="21" fill="#E7F5FB"/>
<g clip-path="url(#clip0_35_188)">
<path d="M29.5556 13.6665H12.4445C12.1203 13.6665 11.8094 13.7953 11.5802 14.0245C11.351 14.2537 11.2222 14.5646 11.2222 14.8887V27.1109C11.2222 27.4351 11.351 27.746 11.5802 27.9752C11.8094 28.2044 12.1203 28.3332 12.4445 28.3332H29.5556C29.8797 28.3332 30.1906 28.2044 30.4198 27.9752C30.649 27.746 30.7778 27.4351 30.7778 27.1109V14.8887C30.7778 14.5646 30.649 14.2537 30.4198 14.0245C30.1906 13.7953 29.8797 13.6665 29.5556 13.6665ZM28.6145 27.1109H13.4589L17.7367 22.6865L16.8567 21.8371L12.4445 26.4021V15.8176L20.0406 23.3771C20.2696 23.6047 20.5793 23.7325 20.9022 23.7325C21.2251 23.7325 21.5349 23.6047 21.7639 23.3771L29.5556 15.6282V26.3226L25.0578 21.8248L24.1961 22.6865L28.6145 27.1109ZM13.245 14.8887H28.5656L20.9022 22.5093L13.245 14.8887Z" fill="#47B2E4"/>
</g>
<defs>
<clipPath id="clip0_35_188">
<rect width="22" height="22" fill="white" transform="translate(10 10)"/>
</clipPath>
</defs>
</svg>
