<svg width="42" height="42" viewBox="0 0 42 42" fill="none" xmlns="http://www.w3.org/2000/svg">
<circle cx="21" cy="21" r="21" fill="#E7F5FB"/>
<g clip-path="url(#clip0_36_1008)">
<path d="M29.5556 13.667H12.4445C12.1203 13.667 11.8094 13.7958 11.5802 14.025C11.351 14.2542 11.2222 14.5651 11.2222 14.8892V27.1114C11.2222 27.4356 11.351 27.7465 11.5802 27.9757C11.8094 28.2049 12.1203 28.3337 12.4445 28.3337H29.5556C29.8797 28.3337 30.1906 28.2049 30.4198 27.9757C30.649 27.7465 30.7778 27.4356 30.7778 27.1114V14.8892C30.7778 14.5651 30.649 14.2542 30.4198 14.025C30.1906 13.7958 29.8797 13.667 29.5556 13.667ZM28.6145 27.1114H13.4589L17.7367 22.687L16.8567 21.8375L12.4445 26.4025V15.8181L20.0406 23.3775C20.2696 23.6052 20.5793 23.733 20.9022 23.733C21.2251 23.733 21.5349 23.6052 21.7639 23.3775L29.5556 15.6287V26.3231L25.0578 21.8253L24.1961 22.687L28.6145 27.1114ZM13.245 14.8892H28.5656L20.9022 22.5098L13.245 14.8892Z" fill="#47B2E4"/>
</g>
<defs>
<clipPath id="clip0_36_1008">
<rect width="22" height="22" fill="white" transform="translate(10 10)"/>
</clipPath>
</defs>
</svg>
