<svg width="42" height="42" viewBox="0 0 42 42" fill="none" xmlns="http://www.w3.org/2000/svg">
<circle cx="21" cy="21" r="21" fill="#E7F5FB"/>
<g clip-path="url(#clip0_39_33)">
<path d="M29.5555 13.667H12.4444C12.1202 13.667 11.8094 13.7958 11.5801 14.025C11.3509 14.2542 11.2222 14.5651 11.2222 14.8892V27.1114C11.2222 27.4356 11.3509 27.7465 11.5801 27.9757C11.8094 28.2049 12.1202 28.3337 12.4444 28.3337H29.5555C29.8797 28.3337 30.1905 28.2049 30.4197 27.9757C30.649 27.7465 30.7777 27.4356 30.7777 27.1114V14.8892C30.7777 14.5651 30.649 14.2542 30.4197 14.025C30.1905 13.7958 29.8797 13.667 29.5555 13.667ZM28.6144 27.1114H13.4588L17.7366 22.687L16.8566 21.8375L12.4444 26.4025V15.8181L20.0405 23.3775C20.2695 23.6052 20.5793 23.733 20.9022 23.733C21.2251 23.733 21.5348 23.6052 21.7638 23.3775L29.5555 15.6287V26.3231L25.0577 21.8253L24.1961 22.687L28.6144 27.1114ZM13.2449 14.8892H28.5655L20.9022 22.5098L13.2449 14.8892Z" fill="#47B2E4"/>
</g>
<defs>
<clipPath id="clip0_39_33">
<rect width="22" height="22" fill="white" transform="translate(10 10)"/>
</clipPath>
</defs>
</svg>
