<svg width="28" height="28" viewBox="0 0 28 28" fill="none" xmlns="http://www.w3.org/2000/svg">
<path d="M26.1485 21.9975L17.5 7.58625V1.75H18.375C18.8563 1.75 19.25 1.35625 19.25 0.875C19.25 0.39375 18.8563 0 18.375 0H9.62503C9.14378 0 8.75003 0.39375 8.75003 0.875C8.75003 1.35625 9.14378 1.75 9.62503 1.75H10.5V7.58625L1.85153 21.9975C-0.129473 25.298 1.40003 28 5.25003 28H22.75C26.6 28 28.1295 25.2997 26.1485 21.9975ZM6.59053 17.5L12.25 8.0675V1.75H15.75V8.0675L21.4095 17.5H6.59053Z" fill="#47B2E4"/>
</svg>
