<svg width="29" height="28" viewBox="0 0 29 28" fill="none" xmlns="http://www.w3.org/2000/svg">
<path d="M13.3956 2.60587L6.42798 5.21872C5.52219 5.5671 4.91833 6.42644 4.91833 7.40191V12.8715C4.91833 18.7359 8.87826 24.2055 14.2085 25.5409C19.5387 24.2055 23.4986 18.7359 23.4986 12.8715V7.40191C23.4978 6.92934 23.3528 6.46827 23.0831 6.08025C22.8133 5.69223 22.4317 5.39573 21.989 5.23034L15.0214 2.61748C14.4988 2.40845 13.9182 2.40845 13.3956 2.60587ZM12.153 17.203L9.69115 14.7411C9.58363 14.6336 9.49835 14.506 9.44017 14.3655C9.38198 14.225 9.35203 14.0745 9.35203 13.9224C9.35203 13.7704 9.38198 13.6198 9.44017 13.4794C9.49835 13.3389 9.58363 13.2112 9.69115 13.1037C9.79866 12.9962 9.92629 12.9109 10.0668 12.8528C10.2072 12.7946 10.3578 12.7646 10.5098 12.7646C10.6619 12.7646 10.8124 12.7946 10.9529 12.8528C11.0934 12.9109 11.221 12.9962 11.3285 13.1037L12.9659 14.7411L17.0768 10.6302C17.1843 10.5227 17.312 10.4374 17.4524 10.3793C17.5929 10.3211 17.7435 10.2911 17.8955 10.2911C18.0476 10.2911 18.1981 10.3211 18.3386 10.3793C18.4791 10.4374 18.6067 10.5227 18.7142 10.6302C18.8217 10.7377 18.907 10.8654 18.9652 11.0059C19.0234 11.1463 19.0533 11.2969 19.0533 11.4489C19.0533 11.601 19.0234 11.7515 18.9652 11.892C18.907 12.0325 18.8217 12.1601 18.7142 12.2676L13.7904 17.1914C13.3491 17.6559 12.6059 17.6559 12.153 17.203Z" fill="#47B2E4"/>
</svg>
