<svg width="29" height="28" viewBox="0 0 29 28" fill="none" xmlns="http://www.w3.org/2000/svg">
<path d="M13.3956 2.60575L6.42796 5.2186C5.52217 5.56698 4.91831 6.42632 4.91831 7.40178V12.8714C4.91831 18.7358 8.87824 24.2053 14.2085 25.5408C19.5387 24.2053 23.4986 18.7358 23.4986 12.8714V7.40178C23.4978 6.92922 23.3528 6.46815 23.0831 6.08013C22.8133 5.69211 22.4316 5.39561 21.989 5.23021L15.0213 2.61736C14.4988 2.40833 13.9181 2.40833 13.3956 2.60575ZM12.153 17.2029L9.69112 14.741C9.58361 14.6335 9.49833 14.5059 9.44014 14.3654C9.38196 14.2249 9.35201 14.0744 9.35201 13.9223C9.35201 13.7703 9.38196 13.6197 9.44014 13.4792C9.49833 13.3388 9.58361 13.2111 9.69112 13.1036C9.79864 12.9961 9.92627 12.9108 10.0667 12.8526C10.2072 12.7944 10.3578 12.7645 10.5098 12.7645C10.6619 12.7645 10.8124 12.7944 10.9529 12.8526C11.0934 12.9108 11.221 12.9961 11.3285 13.1036L12.9659 14.741L17.0768 10.6301C17.1843 10.5226 17.3119 10.4373 17.4524 10.3791C17.5929 10.3209 17.7434 10.291 17.8955 10.291C18.0475 10.291 18.1981 10.3209 18.3386 10.3791C18.479 10.4373 18.6067 10.5226 18.7142 10.6301C18.8217 10.7376 18.907 10.8653 18.9652 11.0057C19.0233 11.1462 19.0533 11.2968 19.0533 11.4488C19.0533 11.6009 19.0233 11.7514 18.9652 11.8919C18.907 12.0323 18.8217 12.16 18.7142 12.2675L13.7904 17.1913C13.3491 17.6558 12.6059 17.6558 12.153 17.2029Z" fill="#47B2E4"/>
</svg>
