<svg width="129" height="37" viewBox="0 0 129 37" fill="none" xmlns="http://www.w3.org/2000/svg">
<g clip-path="url(#clip0_18_147)">
<path d="M46 6H59.5015V10.9205H55.5077V8.93938H52.098V12.8135H56.3869V15.7764H52.098V18.604H54.399V21.5787H46V18.604H47.4008V8.93938H46V6Z" fill="white"/>
<path d="M78.0847 21.5787H69.0301V18.6393H71.176L70.7021 17.1255H66.0735L65.5996 18.6393H67.361V21.5787H60.1781V18.6393H61.716L64.777 8.87177H63.853V6H72.5083L76.5051 18.6393H78.0847V21.5787ZM66.908 14.4625H69.8676L68.3774 9.6507L66.908 14.4625Z" fill="white"/>
<path d="M79.1219 11.8552V6H93.9348L93.9855 8.96289L85.7177 18.6393H89.8903L89.9142 15.7881H93.911V21.5787H78.9878V18.6716L87.2079 8.93938L82.9399 8.96289L82.9608 11.8552H79.1219Z" fill="white"/>
<path d="M95.2433 11.8552V6H110.056L110.104 8.96289L101.839 18.6393H106.012L106.036 15.7881H110.032V21.5787H95.1091V18.6716L103.329 8.93938L99.0523 8.96289L99.0732 11.8552H95.2433Z" fill="white"/>
<path d="M128.911 21.5787H119.856V18.6393H122.002L121.528 17.1255H116.899L116.425 18.6393H118.184V21.5787H111.004V18.6393H112.539L115.588 8.87177H114.664V6H123.334L127.331 18.6393H128.911V21.5787ZM117.734 14.4742H120.69L119.2 9.66246L117.734 14.4742Z" fill="white"/>
<path d="M46.2385 29.8912V23.4805H49.5527C50.4071 23.4805 51.0489 23.6333 51.4781 23.939C51.6795 24.071 51.844 24.2508 51.9565 24.4619C52.069 24.673 52.1259 24.9086 52.1219 25.1471C52.1306 25.4609 52.0389 25.7695 51.8596 26.0289C51.6796 26.2809 51.4319 26.4783 51.1443 26.5991C50.8133 26.7398 50.4556 26.809 50.0952 26.802L50.28 26.4257C50.6678 26.4184 51.0535 26.4853 51.4155 26.6227C51.7241 26.7412 51.9911 26.9454 52.1845 27.2105C52.3759 27.4881 52.473 27.8185 52.4617 28.1541C52.4696 28.4087 52.4103 28.6609 52.2896 28.8861C52.1689 29.1113 51.991 29.3017 51.7732 29.4386C51.3142 29.7325 50.6406 29.903 49.7465 29.903L46.2385 29.8912ZM47.7883 28.7743H49.6183C49.9386 28.7924 50.2582 28.7275 50.5452 28.5862C50.643 28.5187 50.7228 28.4289 50.7779 28.3246C50.8331 28.2202 50.8618 28.1042 50.8618 27.9865C50.8618 27.8688 50.8331 27.7529 50.7779 27.6485C50.7228 27.5441 50.643 27.4544 50.5452 27.3869C50.2607 27.2379 49.9398 27.1697 49.6183 27.19H47.684V26.1083H49.359C49.669 26.129 49.9787 26.0639 50.2532 25.9201C50.3466 25.857 50.423 25.7723 50.4758 25.6735C50.5286 25.5746 50.5562 25.4646 50.5562 25.3528C50.5562 25.2411 50.5286 25.1311 50.4758 25.0322C50.423 24.9334 50.3466 24.8487 50.2532 24.7855C49.9787 24.6418 49.669 24.5767 49.359 24.5974H47.7883V28.7743Z" fill="white"/>
<path d="M63.6711 28.7008H67.3639V29.8765H62.1124V23.4805H67.2388V24.6709H63.6622L63.6711 28.7008ZM63.5549 26.0554H66.8334V27.2076H63.5549V26.0554Z" fill="white"/>
<path d="M76.1802 29.8912L79.2053 23.4805H80.7552L83.7893 29.8912H82.1411L79.6614 24.2241H80.2753L77.7837 29.8824L76.1802 29.8912ZM77.6943 28.5156L78.1085 27.3898H81.5987L82.0249 28.5156H77.6943Z" fill="white"/>
<path d="M95.8245 30C94.8628 30 94.1097 29.7472 93.5653 29.2416C93.0208 28.7361 92.7496 28.012 92.7516 27.0694V23.4805H94.3223V27.0077C94.3223 27.6162 94.4534 28.0571 94.7187 28.3246C95.0303 28.5846 95.4252 28.7272 95.8334 28.7272C96.2416 28.7272 96.6365 28.5846 96.9481 28.3246C97.2134 28.0571 97.3445 27.6162 97.3445 27.0077V23.4805H98.8943V27.0694C98.8943 28.01 98.6231 28.7341 98.0807 29.2416C97.458 29.7755 96.6481 30.0478 95.8245 30Z" fill="white"/>
<path d="M110.193 29.8912V24.6885H108.023V23.4805H113.934V24.6885H111.764V29.8912H110.193Z" fill="white"/>
<path d="M124.795 29.8912V27.2723L125.155 28.1541L122.175 23.4511H123.844L126.13 27.0489H125.17L127.465 23.4511H129.006L126.026 28.1541L126.374 27.2723V29.8912H124.795Z" fill="white"/>
</g>
<path d="M26.41 16.5546C26.4082 15.922 26.6492 15.3128 27.0834 14.8527C27.5175 14.3926 28.1117 14.1168 28.7434 14.082C30.1911 14.0472 31.3221 15.0877 31.3395 16.5302C31.3495 16.8593 31.2935 17.187 31.1749 17.4941C31.0562 17.8012 30.8772 18.0814 30.6485 18.3182C30.4197 18.555 30.1459 18.7436 29.8431 18.8729C29.5403 19.0022 29.2147 19.0695 28.8855 19.0709C28.5563 19.0723 28.2301 19.0077 27.9262 18.881C27.6223 18.7543 27.3469 18.5681 27.1162 18.3332C26.8855 18.0983 26.7041 17.8197 26.5828 17.5136C26.4615 17.2075 26.4028 16.8802 26.41 16.5511V16.5546ZM30.9932 15.695C30.9993 15.6709 31.0004 15.6459 30.9965 15.6213C30.9926 15.5968 30.9838 15.5733 30.9706 15.5523C30.7935 15.1636 30.51 14.833 30.1528 14.5988C30.1248 14.5805 30.0934 14.5681 30.0605 14.5624C30.0276 14.5566 29.9938 14.5576 29.9613 14.5652C29.9288 14.5729 29.8981 14.587 29.8712 14.6068C29.8443 14.6267 29.8217 14.6517 29.8048 14.6806C29.7648 14.651 29.7596 14.5309 29.73 14.5709C29.6586 14.6701 29.5769 14.6023 29.5055 14.6144C29.3753 14.6423 29.2407 14.6423 29.1105 14.6144C29.0073 14.5713 28.8937 14.5593 28.7837 14.5797C28.6737 14.6 28.572 14.652 28.4911 14.7293C28.4337 14.785 28.3675 14.8093 28.4145 14.9033C28.4441 14.9677 28.3797 15.0077 28.331 15.039C28.2823 15.0703 28.2562 15.0216 28.2283 14.9885C28.2005 14.9555 28.2092 14.8824 28.1431 14.9172C28.1323 14.9239 28.1231 14.9327 28.1159 14.9431C28.1087 14.9535 28.1038 14.9653 28.1013 14.9777C28.0989 14.9901 28.099 15.0028 28.1017 15.0152C28.1044 15.0275 28.1096 15.0392 28.117 15.0494C28.1505 15.1009 28.1641 15.1627 28.1553 15.2234C28.1553 15.293 28.1396 15.3191 28.0787 15.3383C27.9621 15.3748 27.9378 15.4392 27.9952 15.5558C28.0074 15.5802 28.0265 15.608 27.9952 15.6271C27.9117 15.688 27.9064 15.8011 27.8368 15.8707C27.7822 15.9412 27.7432 16.0225 27.7225 16.1092C27.7018 16.1959 27.6998 16.2861 27.7168 16.3736C27.7194 16.4226 27.7338 16.4701 27.7588 16.5123C27.7839 16.5544 27.8188 16.5899 27.8606 16.6155C27.9023 16.6412 27.9497 16.6564 27.9986 16.6597C28.0475 16.663 28.0965 16.6544 28.1413 16.6346C28.2318 16.6068 28.4041 16.6938 28.3971 16.7668C28.3929 16.8112 28.3976 16.8559 28.4111 16.8984C28.4245 16.9408 28.4464 16.9801 28.4754 17.0139C28.4999 17.0405 28.5187 17.0718 28.5306 17.1059C28.5426 17.1401 28.5475 17.1762 28.545 17.2123C28.4911 17.4054 28.6233 17.5255 28.7016 17.6612C28.7451 17.7378 28.7851 17.8457 28.9122 17.8352C28.9818 17.8335 29.0482 17.8055 29.098 17.7567C29.1477 17.7079 29.1771 17.6421 29.1801 17.5725C29.1801 17.5325 29.1801 17.4924 29.2149 17.4646C29.251 17.4367 29.276 17.3969 29.2856 17.3523C29.2951 17.3078 29.2886 17.2612 29.2671 17.221C29.1854 17.047 29.2671 16.9234 29.3802 16.8034C29.4439 16.7282 29.4828 16.6352 29.4916 16.5372C29.4916 16.485 29.4829 16.4467 29.415 16.4676C29.3768 16.478 29.3228 16.5215 29.3037 16.4571C29.2845 16.3927 29.3559 16.4101 29.3872 16.3893C29.4951 16.3179 29.6343 16.2849 29.676 16.13C29.7004 16.036 29.6499 15.9717 29.5803 15.9786C29.422 15.9925 29.4464 15.876 29.4063 15.8046C29.4856 15.8967 29.5945 15.9582 29.7143 15.9786C29.937 15.9908 29.9823 16.1422 30.038 16.2988C30.0693 16.3875 30.1023 16.4728 30.1371 16.5615C30.1563 16.6102 30.1598 16.6085 30.2415 16.6329C30.2118 16.5646 30.202 16.4892 30.2134 16.4156C30.2248 16.342 30.2569 16.2731 30.3059 16.217C30.3494 16.1613 30.4051 16.1213 30.4573 16.1979C30.5079 16.2802 30.5521 16.3663 30.5895 16.4554C30.6191 16.5198 30.687 16.5754 30.734 16.565C30.781 16.5546 30.7775 16.4693 30.7653 16.4119C30.7558 16.3823 30.7448 16.3533 30.7322 16.3249C30.727 16.3138 30.7242 16.3017 30.7241 16.2895C30.7241 16.2772 30.7267 16.2651 30.7319 16.2539C30.737 16.2428 30.7445 16.233 30.7539 16.2251C30.7633 16.2172 30.7743 16.2115 30.7862 16.2083C30.8422 16.1867 30.888 16.1448 30.9144 16.0909C30.9409 16.0371 30.946 15.9752 30.9289 15.9177C30.9097 15.8325 30.8888 15.7437 30.8714 15.6741C30.9376 15.6306 30.9532 15.7037 30.9932 15.695ZM27.1948 18.0301C27.1577 17.987 27.1363 17.9327 27.1337 17.8759C27.1312 17.8191 27.1478 17.7631 27.1808 17.7169C27.2084 17.6696 27.2171 17.6137 27.2052 17.5603C27.2028 17.5452 27.2041 17.5297 27.209 17.5151C27.2138 17.5006 27.2221 17.4875 27.233 17.4768C27.3531 17.3271 27.2957 17.1444 27.3166 16.9774C27.3166 16.96 27.2887 16.9287 27.2661 16.9182C27.066 16.8277 26.9738 16.6311 26.8346 16.4815C26.8156 16.4598 26.7901 16.4447 26.762 16.4385C26.7338 16.4322 26.7044 16.4351 26.678 16.4467C26.6567 16.4515 26.6374 16.4628 26.6228 16.479C26.6082 16.4952 26.5989 16.5155 26.5962 16.5372C26.5736 16.6597 26.5762 16.7856 26.6041 16.9071C26.6319 17.0286 26.6843 17.1431 26.758 17.2436C26.7772 17.2787 26.7895 17.3171 26.7946 17.3567C26.8193 17.47 26.8513 17.5816 26.8903 17.6908C26.9148 17.7653 26.9545 17.834 27.0069 17.8924C27.0593 17.9508 27.1233 17.9977 27.1948 18.0301ZM27.2818 14.9276C27.2791 14.9435 27.2819 14.9597 27.2899 14.9737C27.2978 14.9876 27.3103 14.9984 27.3253 15.0042C27.3688 15.0199 27.3897 14.9798 27.4088 14.952C27.444 14.9064 27.4877 14.8679 27.5376 14.8389C27.6909 14.7672 27.822 14.6554 27.9169 14.5153C27.9291 14.4926 27.9586 14.4683 27.9378 14.4439C27.9169 14.4196 27.8786 14.43 27.8525 14.4439C27.6628 14.5344 27.487 14.6516 27.3305 14.7919C27.3125 14.8093 27.2988 14.8306 27.2904 14.8541C27.2819 14.8777 27.279 14.9028 27.2818 14.9276ZM30.6922 17.7848C30.7923 17.7408 30.8766 17.6672 30.9335 17.5738C30.9904 17.4805 31.0174 17.3719 31.0106 17.2628C30.8245 17.4141 30.6644 17.5742 30.6922 17.7848ZM26.798 15.6602C26.8468 15.6045 26.8729 15.561 26.9285 15.5419C26.9842 15.5227 27.0225 15.4984 26.9703 15.4357C26.9459 15.4061 26.9703 15.3853 26.9981 15.3835C27.026 15.3818 27.0469 15.3174 27.0799 15.3679C27.0904 15.3835 27.0991 15.4096 27.1112 15.3922C27.1257 15.3655 27.1333 15.3356 27.1333 15.3052C27.1333 15.2748 27.1257 15.2449 27.1112 15.2182C27.0886 15.1643 27.0451 15.1417 26.9981 15.1921C26.8969 15.3043 26.8204 15.4365 26.7737 15.5802C26.7615 15.5976 26.7789 15.6219 26.798 15.6602Z" fill="white"/>
<path d="M24.8093 30.2311C21.3171 31.7032 17.7692 31.7171 14.2978 30.1963C7.60919 27.2644 4.49107 19.9128 7.0489 13.1285C8.47572 9.34739 11.138 6.72344 14.9208 5.31054C18.7036 3.89765 22.4185 4.22825 26.0082 6.06571C23.3766 4.39177 20.2802 3.59946 17.168 3.80362C14.0558 4.00779 11.0895 5.19783 8.69908 7.20123C6.30869 9.20462 4.61847 11.9172 3.87343 14.9459C3.1284 17.9745 3.36728 21.1616 4.55545 24.0454C7.12372 30.2294 13.5479 33.9304 20.1443 33.0082C27.0069 32.046 31.1969 26.7685 32.1296 22.6847C30.708 26.2186 28.2893 28.7643 24.8093 30.2311Z" fill="white"/>
<path d="M24.5221 14.7154C24.7083 14.5588 24.9032 14.4126 25.0754 14.2421C25.3155 14.0054 25.3034 13.9393 25.0215 13.7601C24.5952 13.4886 24.1602 13.2381 23.7391 12.951C23.3298 12.6848 22.9821 12.3343 22.7192 11.9229C22.4563 11.5115 22.2844 11.0487 22.2148 10.5654C22.0408 9.57708 22.1035 8.58874 22.1957 7.60737C22.2907 6.91021 22.1768 6.20054 21.8686 5.56807C21.8216 5.47758 21.7363 5.36622 21.6511 5.34534C21.4091 5.29758 21.1645 5.26446 20.9185 5.24616C21.1047 6.05514 21.1047 6.89584 20.9185 7.70481C20.36 10.1722 19.0793 12.2289 17.2523 13.9445C16.1595 14.9642 14.9868 15.9264 13.9219 16.9826C12.7608 18.0903 12.0027 19.5538 11.7677 21.1413C11.5311 22.763 11.7556 24.2733 12.7996 25.5905C13.26 26.1869 13.8388 26.6815 14.4996 27.0434C14.0298 26.29 14.0889 25.554 14.256 24.8127C14.463 23.8905 14.912 23.0727 15.4026 22.2792C15.6678 21.8404 16.017 21.4583 16.4303 21.155C16.8436 20.8516 17.3127 20.6328 17.8108 20.5114C18.8862 20.226 19.9806 20.2956 21.0734 20.3461C21.688 20.3849 22.3042 20.3925 22.9195 20.3687C23.4711 20.3374 23.7443 19.9946 23.7478 19.436C23.7478 19.1333 23.6973 18.827 23.7217 18.5277C23.7391 18.3137 23.7808 18.0405 23.92 17.9118C24.3202 17.5446 24.5412 17.167 24.2472 16.652C24.7257 16.3336 24.7396 16.2709 24.4786 15.782C24.4368 15.7002 24.3898 15.6219 24.3516 15.5401C24.1671 15.1643 24.2089 14.9781 24.5221 14.7154Z" fill="white"/>
<path d="M13.7253 13.4921C14.8563 12.7283 16.0325 12.0305 17.0487 11.1048C18.3694 9.9042 19.5056 8.57134 20.052 6.83654C20.2138 6.32672 20.2486 5.77513 20.3461 5.21658C16.2918 4.91556 11.5485 6.78608 8.87584 11.0422C6.59815 14.6736 6.27625 18.5243 7.76571 22.5263C7.77877 22.5182 7.78959 22.5069 7.79718 22.4936C7.80478 22.4802 7.80892 22.4651 7.80921 22.4498C7.85793 20.8176 8.38863 19.3386 9.24472 17.9657C10.3949 16.13 11.947 14.6945 13.7253 13.4921Z" fill="white"/>
<path d="M31.5797 20.3669L32.4079 18.9488C32.226 18.9203 32.0398 18.9395 31.8675 19.0045C31.6952 19.0694 31.5426 19.1779 31.4248 19.3195C31.0514 19.708 30.7217 20.1362 30.4417 20.5966C30.142 21.1685 29.7202 21.6675 29.2064 22.0583C28.6925 22.4492 28.0991 22.7224 27.468 22.8587C26.6363 23.0535 25.8115 23.2937 24.9502 23.5233C24.9834 23.3721 25.0538 23.2315 25.1549 23.1142C25.2561 22.997 25.3849 22.9067 25.5296 22.8517C25.9368 22.6638 26.348 22.4851 26.7633 22.3158C27.0888 22.1954 27.3691 21.9773 27.5657 21.6913C27.7623 21.4053 27.8655 21.0655 27.8612 20.7184C27.8165 20.7258 27.7723 20.7363 27.729 20.7498C26.7998 21.0856 25.8741 21.4301 24.945 21.7572C24.4858 21.8872 24.0857 22.1718 23.8122 22.5629C23.4155 23.1797 23.0609 23.8227 22.7508 24.4873C22.1122 25.902 21.5328 27.341 20.9133 28.7643C20.6541 29.3629 20.36 29.9458 20.0781 30.5461C20.1286 30.5617 20.1616 30.5826 20.1895 30.5774C21.2996 30.3947 22.4098 30.2155 23.5147 30.0136C23.5795 29.9867 23.6379 29.9464 23.6862 29.8955C23.7344 29.8445 23.7714 29.784 23.7948 29.7178C24.2785 28.4389 24.7379 27.1496 25.2268 25.8724C25.3048 25.6896 25.4404 25.5374 25.6131 25.4391C26.1351 25.1624 26.6763 24.9432 27.1948 24.67C28.2771 24.1028 29.4934 23.7896 30.2903 22.7108C30.8523 21.9504 31.611 21.3361 32.2792 20.6558C32.6446 20.2834 33.0047 19.9058 33.4224 19.4708C32.5175 19.2412 32.2217 20.0624 31.5797 20.3669Z" fill="white"/>
<path d="M9.51445 25.627C11.4006 28.117 14.1539 29.807 17.228 30.3616C18.1223 30.5356 18.011 30.7305 18.3085 29.6778C18.5001 29.0374 18.5511 28.3631 18.4582 27.7011C18.2459 28.5189 17.6752 28.9087 16.8921 29.0305C16.2272 29.123 15.5498 29.0513 14.919 28.8217C13.9833 28.5267 13.125 28.0272 12.4063 27.3594C11.6876 26.6915 11.1266 25.8721 10.7638 24.9606C9.99296 23.1197 9.86768 21.277 10.689 19.4204C11.2788 18.0893 12.1593 16.9548 13.1511 15.9055C13.6592 15.3661 14.1951 14.8615 14.7171 14.3395C14.6894 14.3327 14.6605 14.3324 14.6327 14.3388C14.6049 14.3451 14.579 14.3579 14.557 14.3761C13.4956 15.22 12.4099 16.036 11.378 16.9147C9.42571 18.5765 8.33646 20.6906 8.2077 23.271C8.1966 23.4312 8.23162 23.5912 8.30862 23.7321C8.67254 24.3872 9.0752 25.0199 9.51445 25.627Z" fill="white"/>
<path d="M18.4286 8.21616e-08C14.7837 9.84089e-08 11.2206 1.08086 8.19003 3.10589C5.15943 5.13093 2.7974 8.00918 1.40263 11.3767C0.00786944 14.7441 -0.356976 18.4496 0.354235 22.0244C1.06545 25.5993 2.82077 28.8829 5.39823 31.4601C7.97568 34.0374 11.2595 35.7924 14.8344 36.5033C18.4093 37.2141 22.1147 36.8489 25.4821 35.4538C28.8494 34.0588 31.7275 31.6965 33.7522 28.6657C35.777 25.6349 36.8575 22.0717 36.8571 18.4268C36.8571 16.0068 36.3805 13.6105 35.4543 11.3748C34.5282 9.13902 33.1707 7.10759 31.4594 5.39648C29.7482 3.68537 27.7166 2.32809 25.4808 1.40216C23.2449 0.476227 20.8486 -0.000228435 18.4286 8.21616e-08ZM18.4286 35.5556C15.056 35.5556 11.7591 34.5555 8.95488 32.6818C6.15065 30.8081 3.96503 28.1449 2.67439 25.029C1.38375 21.9131 1.04606 18.4845 1.70402 15.1767C2.36198 11.8689 3.98605 8.83045 6.37084 6.44566C8.75564 4.06086 11.7941 2.43679 15.1019 1.77883C18.4097 1.12087 21.8383 1.45856 24.9542 2.7492C28.0701 4.03984 30.7332 6.22547 32.607 9.02969C34.4807 11.8339 35.4808 15.1308 35.4808 18.5034C35.4808 23.0259 33.6842 27.3632 30.4863 30.5611C27.2884 33.759 22.9511 35.5556 18.4286 35.5556Z" fill="white"/>
<defs>
<clipPath id="clip0_18_147">
<rect width="83" height="24" fill="white" transform="translate(46 6)"/>
</clipPath>
</defs>
</svg>
