<svg width="28" height="28" viewBox="0 0 28 28" fill="none" xmlns="http://www.w3.org/2000/svg">
<path d="M7.58334 23.3333C5.81389 23.3333 4.30228 22.7208 3.0485 21.4958C1.79395 20.2708 1.16667 18.7736 1.16667 17.0041C1.16667 15.4875 1.62362 14.1361 2.53751 12.95C3.45139 11.7638 4.64723 11.0055 6.125 10.675C6.61112 8.88607 7.58334 7.43746 9.04167 6.32913C10.5 5.22079 12.1528 4.66663 14 4.66663C16.275 4.66663 18.2047 5.45879 19.789 7.04313C21.3741 8.62824 22.1667 10.5583 22.1667 12.8333C23.5083 12.9888 24.6217 13.5671 25.5068 14.5681C26.3912 15.5699 26.8333 16.7416 26.8333 18.0833C26.8333 19.5416 26.3231 20.7814 25.3027 21.8026C24.2814 22.8231 23.0417 23.3333 21.5833 23.3333H7.58334ZM12.075 19.3375C12.2306 19.3375 12.3764 19.313 12.5125 19.264C12.6486 19.2157 12.775 19.1333 12.8917 19.0166L17.8208 14.0875C18.0542 13.8541 18.1708 13.5722 18.1708 13.2416C18.1708 12.9111 18.0542 12.6291 17.8208 12.3958C17.5875 12.1625 17.3056 12.0458 16.975 12.0458C16.6444 12.0458 16.3625 12.1625 16.1292 12.3958L12.0458 16.4791L10.4125 14.8458C10.1792 14.6125 9.90695 14.4958 9.59584 14.4958C9.28473 14.4958 9.01251 14.6125 8.77917 14.8458C8.54584 15.0791 8.42917 15.3564 8.42917 15.6776C8.42917 15.9981 8.54584 16.275 8.77917 16.5083L11.2583 19.0166C11.375 19.1333 11.5014 19.2157 11.6375 19.264C11.7736 19.313 11.9194 19.3375 12.075 19.3375ZM7.58334 21H21.5833C22.4 21 23.0903 20.718 23.6542 20.1541C24.2181 19.5902 24.5 18.9 24.5 18.0833C24.5 17.2666 24.2181 16.5763 23.6542 16.0125C23.0903 15.4486 22.4 15.1666 21.5833 15.1666H19.8333V12.8333C19.8333 11.2194 19.2648 9.84351 18.1277 8.70563C16.9898 7.56851 15.6139 6.99996 14 6.99996C12.3861 6.99996 11.0106 7.56851 9.87351 8.70563C8.73562 9.84351 8.16667 11.2194 8.16667 12.8333H7.58334C6.45556 12.8333 5.49306 13.2319 4.69584 14.0291C3.89862 14.8263 3.50001 15.7888 3.50001 16.9166C3.50001 18.0444 3.89862 19.0069 4.69584 19.8041C5.49306 20.6013 6.45556 21 7.58334 21Z" fill="#47B2E4"/>
</svg>
