<svg width="28" height="28" viewBox="0 0 28 28" fill="none" xmlns="http://www.w3.org/2000/svg">
<path d="M7.58329 23.3333C5.81385 23.3333 4.30224 22.7208 3.04846 21.4958C1.7939 20.2708 1.16663 18.7736 1.16663 17.0041C1.16663 15.4875 1.62357 14.1361 2.53746 12.95C3.45135 11.7638 4.64718 11.0055 6.12496 10.675C6.61107 8.88607 7.58329 7.43746 9.04163 6.32913C10.5 5.22079 12.1527 4.66663 14 4.66663C16.275 4.66663 18.2046 5.45879 19.789 7.04313C21.3741 8.62824 22.1666 10.5583 22.1666 12.8333C23.5083 12.9888 24.6217 13.5671 25.5068 14.5681C26.3911 15.5699 26.8333 16.7416 26.8333 18.0833C26.8333 19.5416 26.3231 20.7814 25.3026 21.8026C24.2814 22.8231 23.0416 23.3333 21.5833 23.3333H7.58329ZM12.075 19.3375C12.2305 19.3375 12.3763 19.313 12.5125 19.264C12.6486 19.2157 12.775 19.1333 12.8916 19.0166L17.8208 14.0875C18.0541 13.8541 18.1708 13.5722 18.1708 13.2416C18.1708 12.9111 18.0541 12.6291 17.8208 12.3958C17.5875 12.1625 17.3055 12.0458 16.975 12.0458C16.6444 12.0458 16.3625 12.1625 16.1291 12.3958L12.0458 16.4791L10.4125 14.8458C10.1791 14.6125 9.9069 14.4958 9.59579 14.4958C9.28468 14.4958 9.01246 14.6125 8.77913 14.8458C8.54579 15.0791 8.42913 15.3564 8.42913 15.6776C8.42913 15.9981 8.54579 16.275 8.77913 16.5083L11.2583 19.0166C11.375 19.1333 11.5013 19.2157 11.6375 19.264C11.7736 19.313 11.9194 19.3375 12.075 19.3375ZM7.58329 21H21.5833C22.4 21 23.0902 20.718 23.6541 20.1541C24.218 19.5902 24.5 18.9 24.5 18.0833C24.5 17.2666 24.218 16.5763 23.6541 16.0125C23.0902 15.4486 22.4 15.1666 21.5833 15.1666H19.8333V12.8333C19.8333 11.2194 19.2647 9.84351 18.1276 8.70563C16.9897 7.56851 15.6138 6.99996 14 6.99996C12.3861 6.99996 11.0106 7.56851 9.87346 8.70563C8.73557 9.84351 8.16663 11.2194 8.16663 12.8333H7.58329C6.45551 12.8333 5.49301 13.2319 4.69579 14.0291C3.89857 14.8263 3.49996 15.7888 3.49996 16.9166C3.49996 18.0444 3.89857 19.0069 4.69579 19.8041C5.49301 20.6013 6.45551 21 7.58329 21Z" fill="#47B2E4"/>
</svg>
