<svg width="28" height="28" viewBox="0 0 28 28" fill="none" xmlns="http://www.w3.org/2000/svg">
<path d="M7.58335 23.3334C5.81391 23.3334 4.3023 22.7209 3.04852 21.4959C1.79396 20.2709 1.16669 18.7737 1.16669 17.0042C1.16669 15.4876 1.62363 14.1362 2.53752 12.9501C3.45141 11.764 4.64724 11.0056 6.12502 10.6751C6.61113 8.88619 7.58335 7.43758 9.04169 6.32925C10.5 5.22091 12.1528 4.66675 14 4.66675C16.275 4.66675 18.2047 5.45891 19.789 7.04325C21.3741 8.62836 22.1667 10.5584 22.1667 12.8334C23.5084 12.989 24.6217 13.5672 25.5069 14.5682C26.3912 15.57 26.8334 16.7417 26.8334 18.0834C26.8334 19.5417 26.3231 20.7815 25.3027 21.8027C24.2815 22.8232 23.0417 23.3334 21.5834 23.3334H7.58335ZM12.075 19.3376C12.2306 19.3376 12.3764 19.3131 12.5125 19.2641C12.6486 19.2159 12.775 19.1334 12.8917 19.0167L17.8209 14.0876C18.0542 13.8542 18.1709 13.5723 18.1709 13.2417C18.1709 12.9112 18.0542 12.6292 17.8209 12.3959C17.5875 12.1626 17.3056 12.0459 16.975 12.0459C16.6445 12.0459 16.3625 12.1626 16.1292 12.3959L12.0459 16.4792L10.4125 14.8459C10.1792 14.6126 9.90697 14.4959 9.59585 14.4959C9.28474 14.4959 9.01252 14.6126 8.77919 14.8459C8.54585 15.0792 8.42919 15.3565 8.42919 15.6777C8.42919 15.9982 8.54585 16.2751 8.77919 16.5084L11.2584 19.0167C11.375 19.1334 11.5014 19.2159 11.6375 19.2641C11.7736 19.3131 11.9195 19.3376 12.075 19.3376ZM7.58335 21.0001H21.5834C22.4 21.0001 23.0903 20.7181 23.6542 20.1542C24.2181 19.5904 24.5 18.9001 24.5 18.0834C24.5 17.2667 24.2181 16.5765 23.6542 16.0126C23.0903 15.4487 22.4 15.1667 21.5834 15.1667H19.8334V12.8334C19.8334 11.2195 19.2648 9.84364 18.1277 8.70575C16.9898 7.56864 15.6139 7.00008 14 7.00008C12.3861 7.00008 11.0106 7.56864 9.87352 8.70575C8.73563 9.84364 8.16669 11.2195 8.16669 12.8334H7.58335C6.45558 12.8334 5.49308 13.232 4.69585 14.0292C3.89863 14.8265 3.50002 15.789 3.50002 16.9167C3.50002 18.0445 3.89863 19.007 4.69585 19.8042C5.49308 20.6015 6.45558 21.0001 7.58335 21.0001Z" fill="#47B2E4"/>
</svg>
